<?xml version="1.0" encoding="utf-8"?>
<!-- Generator: Adobe Illustrator 27.2.0, SVG Export Plug-In . SVG Version: 6.00 Build 0)  -->
<svg version="1.1" id="Camada_1" xmlns="http://www.w3.org/2000/svg" xmlns:xlink="http://www.w3.org/1999/xlink" x="0px" y="0px"
	 viewBox="0 0 255.12 82.87" style="enable-background:new 0 0 255.12 82.87;" xml:space="preserve">
<style type="text/css">
	.st0{fill:#686CB0;}
</style>
<g>
	<g>
		<g>
			<path class="st0" d="M132.33,30.72c-0.17-11.77-7.65-22.86-18.35-27.67C99.17-4.08,79.67,1.99,72.04,16.68
				c-1.81,3.34-3,7.04-3.48,10.82c-0.61-0.49-0.09,52.7-0.26,54.06c0,0.7,0.57,1.28,1.28,1.28c0.8-0.17,3.64,0.36,4.2-0.38
				c0,0,6.91-6.91,6.91-6.91c0.24-0.24,0.37-0.56,0.37-0.9V57.13c10.74,7.89,27.55,7.54,38.4-0.4
				C127.74,50.9,132.7,40.84,132.33,30.72z M119.59,31.58c-0.03,17.59-21.68,25.74-33.65,13.09c0,0,0,0,0,0
				c-0.53-0.28-3.46-0.16-4.11-0.18c-0.7,0-1.28-0.57-1.28-1.28V31.58c-0.14-10.47,9.42-19.42,19.78-19.26
				C110.65,12.1,119.8,21.25,119.59,31.58z"/>
		</g>
	</g>
	<g>
		<g>
			<path class="st0" d="M64.22,31.43c-0.08-10.37-5.11-19.4-12.84-25.06c-0.1-0.08-0.21-0.15-0.31-0.22
				C46.52,2.91,41.06,0.82,35.13,0.3c-0.4-0.04-0.8-0.06-1.2-0.08c-0.51-0.03-1.03-0.04-1.55-0.05C18.75,0.1,6.98,8.37,2.32,20.29
				c-0.08,0.21-0.16,0.42-0.24,0.63c-1.2,3.27-1.86,6.81-1.89,10.52c-0.02,2.14,0.18,4.22,0.57,6.23c0.09,0.47,0.19,0.95,0.31,1.41
				c3.36,13.92,16.05,23.86,31.14,23.86c7.82,0,15-2.06,20.57-6.74c2.12,2.12,3.66,3.66,5.97,5.97c0.24,0.24,0.56,0.38,0.9,0.38h3.3
				c0.7,0,1.28-0.57,1.28-1.28V31.68C64.23,31.6,64.23,31.52,64.22,31.43z M32.21,50.94c-5.49,0-10.44-2.3-13.95-6
				c-0.39-0.41-0.76-0.83-1.11-1.27c-2.63-3.29-4.2-7.46-4.2-12v0c0-0.4,0.01-0.79,0.04-1.18c0.61-10.08,9-18.08,19.22-18.08
				c2.62,0,5.15,0.53,7.48,1.48c0.02,0.01,0.03,0.01,0.05,0.02c7.08,2.92,12.25,9.78,12.25,17.76v11.64c0,0.7-0.57,1.28-1.28,1.28
				h-3.3c-0.05,0-0.09,0-0.14-0.01c-0.03,0-0.05-0.01-0.07,0c-0.25-0.01-0.49,0.07-0.67,0.25C42.89,48.59,37.75,50.94,32.21,50.94z"
				/>
		</g>
		<g>
			<path class="st0" d="M64.23,31.43v0.25C64.23,31.6,64.23,31.52,64.23,31.43L64.23,31.43z"/>
		</g>
	</g>
	<g>
		<g>
			<path class="st0" d="M198.87,26.55c-0.07-0.4-0.14-0.81-0.22-1.21c-0.01-0.09-0.03-0.17-0.05-0.25
				C194.67,6.49,174.56-5.69,153.76,3c-7.26,3.03-12.98,8.39-15.91,15.7c-9.24,23.02,7.56,44.27,29.42,44.27
				c4.89,0,9.74-0.36,14.1-2.5c0.65-0.32,0.89-1.12,0.55-1.75l-4.87-8.96c-0.32-0.6-1.05-0.85-1.66-0.56
				c-2.53,1.17-5.31,1.78-8.11,1.78c-10.15,0-18.76-7.89-19.64-17.84c-0.1-1.15,1.3-1.79,2.12-0.97l4.79,4.79
				c0.24,0.24,0.57,0.37,0.9,0.37h42.57c0.71,0,1.28-0.57,1.28-1.27v-4.34C199.29,29.95,199.15,28.23,198.87,26.55z M148.53,25.33
				c0.3-0.94,0.68-1.9,1.14-2.85c1.68-3.51,5.05-6.31,8.57-7.96c11.82-5.51,23.98,0.61,27.63,10.56c0.03,0.08,0.06,0.16,0.09,0.25
				H148.53z"/>
		</g>
	</g>
	<g>
		<g>
			<path class="st0" d="M239.9,23.15l-5.74,6.75c-0.81,0.95-0.81,2.35,0,3.31l5.74,6.75l14.9,17.52c0.2,0.23,0.31,0.54,0.31,0.85
				v2.72c0,0.7-0.54,1.27-1.21,1.27h-11.26c-0.32,0-0.63-0.13-0.86-0.37L224.7,41.32c-0.38-0.4-1-0.4-1.38,0l-16.58,20.63
				c-0.23,0.24-0.54,0.37-0.86,0.37h-11.76c-0.67,0-1.21-0.57-1.21-1.27v-2.72c0-0.32,0.11-0.62,0.31-0.85l21.81-25.92L193.21,5.63
				c-0.2-0.23-0.31-0.54-0.31-0.85V2.06c0-0.7,0.54-1.27,1.21-1.27h11.76c0.32,0,0.63,0.13,0.86,0.37l16.58,20.63
				c0.38,0.4,1,0.4,1.38,0l17.09-20.63c0.23-0.24,0.54-0.37,0.86-0.37h11.26c0.67,0,1.21,0.57,1.21,1.27v2.72
				c0,0.32-0.11,0.62-0.31,0.85L239.9,23.15z"/>
		</g>
	</g>
</g>
</svg>
